<?xml version="1.0" encoding="UTF-8"?>
<svg width="1150px" height="1150px" viewBox="0 0 1150 1150" version="1.1" xmlns="http://www.w3.org/2000/svg" xmlns:xlink="http://www.w3.org/1999/xlink">
    <title>afteracademy-logo</title>
    <desc>Created by AfterAcademy.</desc>
    <g id="Page-1" stroke="none" stroke-width="1" fill="none" fill-rule="evenodd">
        <g id="afteracademy-logo-Seconday">
            <rect id="Rectangle" fill-opacity="0.01" fill="#FFFFFF" x="0" y="0" width="1150" height="1150"></rect>
            <rect id="Rectangle" fill="#11209F" x="25" y="24" width="1100" height="1100" rx="550"></rect>
            <circle id="Oval" fill="#F5A623" cx="331" cy="605" r="35"></circle>
            <path d="M876.408203,601.287109 L876.408203,503.191406 C876.408203,489.747329 873.844752,477.044005 868.717773,465.081055 C863.590795,453.118104 856.584029,442.693404 847.697266,433.806641 C838.810502,424.919877 828.385802,417.913112 816.422852,412.786133 C804.459901,407.659154 791.756578,405.095703 778.3125,405.095703 C764.868422,405.095703 752.165099,407.659154 740.202148,412.786133 C728.239198,417.913112 717.814498,424.919877 708.927734,433.806641 C700.040971,442.693404 693.034205,453.118104 687.907227,465.081055 C682.780248,477.044005 680.216797,489.747329 680.216797,503.191406 L680.216797,601.287109 L876.408203,601.287109 Z M974.503906,797.136719 L876.408203,797.136719 L876.408203,699.041016 L680.216797,699.041016 L680.216797,797.136719 L582.462891,797.136719 L582.462891,503.191406 C582.462891,476.075385 587.589792,450.611773 597.84375,426.799805 C608.097708,402.987837 622.054274,382.195401 639.713867,364.421875 C657.373461,346.648349 678.10893,332.634817 701.920898,322.380859 C725.732866,312.126902 751.196479,307 778.3125,307 C805.428521,307 830.892134,312.126902 854.704102,322.380859 C878.51607,332.634817 899.308505,346.648349 917.082031,364.421875 C934.855558,382.195401 948.869089,402.987837 959.123047,426.799805 C969.377004,450.611773 974.503906,476.075385 974.503906,503.191406 L974.503906,797.136719 Z" id="aA" fill="#FFFFFF"></path>
            <path d="M517.990234,786 L495.431641,786 L459.201172,735.755859 C450.314409,743.73116 440.915089,751.19365 431.00293,758.143555 C421.090771,765.093459 410.66607,771.13181 399.728516,776.258789 C388.790961,781.385768 377.568742,785.430324 366.061523,788.392578 C354.554304,791.354833 342.876361,792.835938 331.027344,792.835938 C305.278517,792.835938 281.068147,788.506554 258.395508,779.847656 C235.722868,771.188759 215.898848,758.599366 198.922852,742.079102 C181.946855,725.558837 168.559945,705.336057 158.761719,681.410156 C148.963493,657.484255 144.064453,630.25471 144.064453,599.720703 C144.064453,571.237488 148.963493,545.090288 158.761719,521.27832 C168.559945,497.466352 181.946855,477.01571 198.922852,459.925781 C215.898848,442.835852 235.722868,429.562873 258.395508,420.106445 C281.068147,410.650018 305.278517,405.921875 331.027344,405.921875 C342.876361,405.921875 354.61127,407.40298 366.232422,410.365234 C377.853574,413.327489 389.132758,417.42901 400.070312,422.669922 C411.007867,427.910833 421.432568,434.063116 431.344727,441.126953 C441.256885,448.190791 450.542274,455.824178 459.201172,464.027344 L495.431641,420.619141 L517.990234,420.619141 L517.990234,786 Z M423.996094,599.720703 C423.996094,586.960223 421.546574,574.598693 416.647461,562.635742 C411.748348,550.672792 405.083375,540.077195 396.652344,530.848633 C388.221312,521.620071 378.366267,514.214546 367.086914,508.631836 C355.807561,503.049126 343.787824,500.257812 331.027344,500.257812 C318.266863,500.257812 306.247127,502.422504 294.967773,506.751953 C283.68842,511.081402 273.890341,517.461546 265.573242,525.892578 C257.256143,534.32361 250.705102,544.74831 245.919922,557.166992 C241.134742,569.585674 238.742188,583.770103 238.742188,599.720703 C238.742188,615.671304 241.134742,629.855732 245.919922,642.274414 C250.705102,654.693096 257.256143,665.117796 265.573242,673.548828 C273.890341,681.97986 283.68842,688.360004 294.967773,692.689453 C306.247127,697.018902 318.266863,699.183594 331.027344,699.183594 C343.787824,699.183594 355.807561,696.392281 367.086914,690.80957 C378.366267,685.22686 388.221312,677.821335 396.652344,668.592773 C405.083375,659.364212 411.748348,648.768615 416.647461,636.805664 C421.546574,624.842714 423.996094,612.481184 423.996094,599.720703 Z" id="a" fill="#FFFFFF"></path>
            <rect id="Rectangle" fill="#11209F" x="112" y="493" width="885" height="60"></rect>
            <rect id="Rectangle" fill="#F5A623" x="323" y="515" width="463" height="15"></rect>
            <rect id="Rectangle" fill="#F5A623" x="322" y="515" width="16" height="119"></rect>
            <circle id="Oval" fill="#F5A623" cx="778" cy="523" r="35"></circle>
        </g>
    </g>
</svg>